#!OML:ASF H:\Terrain\Patient Classification 1\Walking\steve\steve.ASF
:FULLY-SPECIFIED
:DEGREES
292
root 8.21651 16.5764 24.5053 4.47581 -11.1768 1.8283
lowerback -0.45622 4.49176 -2.17954
upperback -2.58626 5.93911 -1.63633
thorax -2.44919 2.99322 -0.569537
lowerneck -10.8955 0.162037 -1.40291
upperneck 13.8492 0.263919 1.29229
head 5.98209 0.155688 0.660863
rclavicle 7.23669e-014 -1.53064e-014
rhumerus -27.5526 3.02756 -87.1765
rradius 55.8629
rwrist -23.4025
rhand -21.0366 -40.1654
rfingers 7.12502
rthumb 5.33905 -70.0782
lclavicle 7.23669e-014 -1.53064e-014
lhumerus -60.7598 30.822 46.9194
lradius 9.40114
lwrist -28.2797
lhand -16.2578 -6.6625
lfingers 7.12502
lthumb 9.95145 23.0823
rfemur -11.8334 6.69404 16.2154
rtibia 69.1669
rfoot 14.7965 -6.57941
rtoes 0.744049
lfemur -28.204 2.49545 -25.0525
ltibia 34.0227
lfoot -10.9178 -0.743763
ltoes 6.07998
293
root 8.23192 16.5936 24.6913 4.41991 -10.8383 1.84588
lowerback -0.246221 4.33184 -2.06142
upperback -2.49927 5.72217 -1.65561
thorax -2.46147 2.88177 -0.662217
lowerneck -10.993 0.116814 -1.59247
upperneck 13.9286 0.222006 1.3827
head 6.02408 0.132519 0.717674
rclavicle -5.63027e-014 1.45113e-014
rhumerus -28.2144 2.67109 -87.6016
rradius 54.6103
rwrist -23.1678
rhand -20.6189 -40.6324
rfingers 7.12502
rthumb 5.74232 -70.5346
lclavicle -5.63027e-014 1.45113e-014
lhumerus -59.7332 31.8965 47.2541
lradius 9.52343
lwrist -29.5681
lhand -16.2008 -6.61022
lfingers 7.12502
lthumb 10.0064 23.1319
rfemur -13.7873 6.35843 16.3599
rtibia 70.9152
rfoot 12.5159 -5.48382
rtoes -0.907595
lfemur -27.1549 2.06798 -25.2247
ltibia 33.5342
lfoot -11.308 -0.760205
ltoes 5.48779
294
root 8.24796 16.6162 24.8882 4.35511 -10.5071 1.87178
lowerback -0.128271 4.15821 -2.00656
upperback -2.46845 5.48932 -1.60521
thorax -2.494 2.76483 -0.64378
lowerneck -10.7212 0.0682976 -1.81919
upperneck 13.7627 0.189999 1.39293
head 5.92545 0.105364 0.754132
rclavicle -1.24838e-014 -2.18663e-015
rhumerus -28.9539 2.45498 -87.9478
rradius 53.0293
rwrist -23.114
rhand -20.4922 -40.2319
rfingers 7.12502
rthumb 5.86462 -70.1308
lclavicle -1.24838e-014 -2.18663e-015
lhumerus -58.7176 33.0388 47.6476
lradius 9.22854
lwrist -31.3361
lhand -16.1529 -6.75363
lfingers 7.12502
lthumb 10.0526 22.9863
rfemur -15.5744 5.89249 16.4633
rtibia 72.3448
rfoot 10.3844 -3.924
rtoes -4.94349
lfemur -26.071 1.88415 -25.4742
ltibia 33.1512
lfoot -11.7764 -0.929509
ltoes 3.46929
295
root 8.26291 16.6504 25.0994 4.28601 -10.3039 1.97582
lowerback -0.0325953 3.98119 -2.10464
upperback -2.56604 5.24795 -1.53571
thorax -2.66233 2.648 -0.526079
lowerneck -10.3372 0.0853089 -2.0439
upperneck 13.7964 0.2402 1.41389
head 5.86918 0.118437 0.800889
rclavicle -5.28457e-014 1.21259e-014
rhumerus -30.0361 2.27766 -88.2092
rradius 51.539
rwrist -22.7255
rhand -19.7061 -40.1403
rfingers 7.12502
rthumb 6.62357 -70.0167
lclavicle -5.28457e-014 1.21259e-014
lhumerus -58.2823 33.9339 47.7019
lradius 9.39889
lwrist -32.9312
lhand -15.9111 -7.44381
lfingers 7.12502
lthumb 10.2859 22.2847
rfemur -17.0182 5.46528 16.4995
rtibia 73.4005
rfoot 8.14562 -2.776
rtoes -8.53915
lfemur -24.9598 1.79234 -25.792
ltibia 32.749
lfoot -12.3327 -1.13135
ltoes 3.51492
296
root 8.27101 16.6823 25.2923 4.39263 -10.0494 1.90144
lowerback 0.365206 3.82493 -2.12584
upperback -2.92545 5.02097 -1.45572
thorax -3.26452 2.53944 -0.474725
lowerneck -10.3708 0.138033 -2.32833
upperneck 14.5779 0.295163 1.8004
head 6.11894 0.157575 0.978389
rclavicle -1.96797e-014 1.39149e-014
rhumerus -31.5743 1.63637 -88.3754
rradius 50.3584
rwrist -21.8514
rhand -18.3066 -40.3665
rfingers 7.12502
rthumb 7.97443 -70.1961
lclavicle -1.96797e-014 1.39149e-014
lhumerus -58.149 34.4206 47.5546
lradius 10.0313
lwrist -34.2502
lhand -16.0927 -8.6844
lfingers 7.12502
lthumb 10.1108 21.0527
rfemur -18.8521 5.37789 16.7656
rtibia 74.0599
rfoot 6.13926 -3.49484
rtoes -2.42891
lfemur -24.0684 1.47957 -25.8278
ltibia 32.2127
lfoot -12.5576 -1.2121
ltoes 5.43311
297
root 8.28319 16.7206 25.4979 4.43367 -9.6126 1.84618
lowerback 0.452739 3.66093 -2.03813
upperback -3.03768 4.8002 -1.41704
thorax -3.42354 2.42847 -0.487269
lowerneck -10.4088 0.0257862 -2.44565
upperneck 15.007 0.139613 1.92448
head 6.26449 0.0843634 1.02675
rclavicle 1.54058e-015 3.08116e-014
rhumerus -32.7954 0.69829 -88.4399
rradius 49.0057
rwrist -21.0134
rhand -17.8751 -39.9384
rfingers 7.12502
rthumb 8.39084 -69.7517
lclavicle 1.54058e-015 3.08116e-014
lhumerus -54.454 31.9888 53.2186
lradius 10.6512
lwrist -30.2131
lhand -16.4131 -8.84714
lfingers 7.12502
lthumb 9.80162 20.9047
rfemur -20.556 4.94291 16.9879
rtibia 74.46
rfoot 4.68955 -2.21615
rtoes -7.3611
lfemur -22.9296 1.05151 -25.9244
ltibia 31.6121
lfoot -12.8668 -1.38463
ltoes 6.17885
298
root 8.29498 16.7549 25.7279 4.24771 -9.15008 2.01596
lowerback 0.0637763 3.49829 -2.12123
upperback -2.75885 4.59858 -1.42537
thorax -2.91997 2.32739 -0.40267
lowerneck -10.3612 0.0323127 -1.98071
upperneck 14.8523 0.164714 1.33959
head 6.20831 0.0762593 0.76532
rclavicle -1.57071e-014 1.21259e-014
rhumerus -33.5131 -0.0374083 -88.4844
rradius 47.3179
rwrist -20.8043
rhand -18.3273 -39.3618
rfingers 7.12502
rthumb 7.95442 -69.1921
lclavicle -1.57071e-014 1.21259e-014
lhumerus -51.1556 30.34 57.6315
lradius 11.1051
lwrist -27.4357
lhand -15.9247 -8.54299
lfingers 7.12502
lthumb 10.2728 21.1861
rfemur -21.7108 4.27712 16.9938
rtibia 74.5514
rfoot 2.91385 -1.34369
rtoes -11.6138
lfemur -21.3903 0.867537 -26.3296
ltibia 30.9454
lfoot -13.4495 -1.77226
ltoes 4.75291
299
root 8.29803 16.7659 25.9342 4.12641 -8.85939 2.03072
lowerback -0.0110849 3.41006 -2.23441
upperback -2.65342 4.48575 -1.33046
thorax -2.78421 2.27389 -0.230412
lowerneck -10.6482 -0.147916 -2.59446
upperneck 15.4601 -0.071497 1.93592
head 6.45521 -0.0257766 1.04004
rclavicle -2.6662e-014 -5.1684e-015
rhumerus -34.5473 -0.67445 -88.4346
rradius 45.5716
rwrist -21.0156
rhand -19.5027 -38.1027
rfingers 7.12502
rthumb 6.81991 -67.9729
lclavicle -2.6662e-014 -5.1684e-015
lhumerus -48.2521 28.4638 61.62
lradius 11.6138
lwrist -24.7285
lhand -15.9178 -8.83684
lfingers 7.12502
lthumb 10.2794 20.892
rfemur -22.9685 4.04481 17.2695
rtibia 74.5254
rfoot 1.21513 -1.25406
rtoes -12.0229
lfemur -20.0504 0.91842 -26.5105
ltibia 30.1659
lfoot -13.8509 -1.98816
ltoes 2.43799
300
root 8.30338 16.7865 26.1325 4.11646 -8.56671 1.86646
lowerback -0.127523 3.29566 -2.25291
upperback -2.54284 4.34367 -1.11148
thorax -2.62087 2.20477 0.0195385
lowerneck -10.3529 -0.0393527 -1.98349
upperneck 15.0913 0.117049 1.03116
head 6.28418 0.0275257 0.6646
rclavicle 5.23968e-014 -2.14687e-014
rhumerus -35.5123 -1.3453 -88.2382
rradius 43.8343
rwrist -20.9334
rhand -20.039 -37.3938
rfingers 7.12502
rthumb 6.30213 -67.28
lclavicle 5.23968e-014 -2.14687e-014
lhumerus -45.2085 25.5367 66.3346
lradius 12.3955
lwrist -20.5925
lhand -16.6107 -9.49158
lfingers 7.12502
lthumb 9.61098 20.2692
rfemur -24.3215 3.63725 17.6113
rtibia 74.3103
rfoot -0.402317 -0.862518
rtoes -8.54946
lfemur -18.9093 0.805508 -26.4471
ltibia 29.4935
lfoot -14.1266 -2.12045
ltoes 1.38014
